PathFileType	4	(x/y/z)	S09_P20_T27
DataRate	CameraRate	NumFrames	NumMarkers	Units	OrigDataRate	OrigDataStartFrame	OrigNumFrames
240	240	4	51	mm	240	345	394
Frame#	Time	Sternum			R.Acromium			L.Acromium			Top.Head			R.ASIS			L.ASIS			R.PSIS			L.PSIS			R.Great.Tro			L.Great.Tro			R.Iliac.Crest			L.Iliac.Crest			V.Sacral			R.Thigh.Upper.Post			R.Thigh.Lower.Ant			R.Thigh.Lower.Post			R.Thigh.Upper.Ant			R.Knee.Lat			R.Knee.Med			R.Shank.Upper.Post			R.Shank.Lower.Ant			R.Shank.Lower.Post			R.Shank.Upper.Ant			R.Ankle.Lat			R.Ankle.Med			R.Heel.Upper			R.Heel.Med			R.Heel.Lat			R.Toe.Lat			R.Toe.Med			R.Toe.Tip			L.Thigh.Upper.Post			L.Thigh.Lower.Ant			L.Thigh.Lower.Post			L.Thigh.Upper.Ant			L.Knee.Lat			L.Knee.Med			L.Shank.Upper.Post			L.Shank.Lower.Ant			L.Shank.Lower.Post			L.Shank.Upper.Ant			L.Ankle.Lat			L.Ankle.Med			L.Heel.Upper			L.Heel.Med			L.Heel.Lat			L.Toe.Lat			L.Toe.Med			L.Toe.Tip			Cervical.Spine			Back			
		X1	Y1	Z1	X2	Y2	Z2	X3	Y3	Z3	X4	Y4	Z4	X5	Y5	Z5	X6	Y6	Z6	X7	Y7	Z7	X8	Y8	Z8	X9	Y9	Z9	X10	Y10	Z10	X11	Y11	Z11	X12	Y12	Z12	X13	Y13	Z13	X14	Y14	Z14	X15	Y15	Z15	X16	Y16	Z16	X17	Y17	Z17	X18	Y18	Z18	X19	Y19	Z19	X20	Y20	Z20	X21	Y21	Z21	X22	Y22	Z22	X23	Y23	Z23	X24	Y24	Z24	X25	Y25	Z25	X26	Y26	Z26	X27	Y27	Z27	X28	Y28	Z28	X29	Y29	Z29	X30	Y30	Z30	X31	Y31	Z31	X32	Y32	Z32	X33	Y33	Z33	X34	Y34	Z34	X35	Y35	Z35	X36	Y36	Z36	X37	Y37	Z37	X38	Y38	Z38	X39	Y39	Z39	X40	Y40	Z40	X41	Y41	Z41	X42	Y42	Z42	X43	Y43	Z43	X44	Y44	Z44	X45	Y45	Z45	X46	Y46	Z46	X47	Y47	Z47	X48	Y48	Z48	X49	Y49	Z49	X50	Y50	Z50	X51	Y51	Z51	

345	1.4333	565.11	1186.5	296.2	427.8	1428.1	440.22	453.2	1443.3	129.65	445.84	1743.9	289.01	488.14	1018.3	385.35	493.96	1017.7	141.04	269.73	1049.2	306.27	279.76	1057.5	216.85	403.32	935.32	456.15	408.08	935.02	73.151	402.35	1098.7	426.48	401.55	1121.2	107.41	256.16	1018.3	256.7	470.9	693.11	440.96	568.01	615.49	405.54	489.86	603.75	414.95	542.29	699.57	431.44	568.28	541.01	398.5	565.25	526.87	272.29	558.26	356.18	407.96	644.11	324.06	404.89	584.2	283.68	400.48	613.31	391.39	412.65	685.23	115.08	392.26	715.9	140.52	310.78	643.19	67.603	333.03	671.26	45.751	306.86	655.63	40.852	369.44	795.85	100.49	442.35	845.93	132.72	346.17	873.25	167.49	395.29	294.05	700.32	132.41	353.46	588.9	129.93	289.93	610.7	149.82	357.98	675.54	107.47	318.64	511.17	143.65	344.89	522.64	274.07	237.4	391.93	137.97	277.42	289.85	152.81	219.06	317.76	148.09	295.36	365.45	143.82	187.52	119.87	178.81	203.52	113.15	270.22	108.47	91.327	231.7	118.27	64.781	263.78	105.18	63.903	203.37	275.6	42.915	145.25	315.81	38.579	252.13	368.22	46.01	191.87	351.39	1489.7	288.4	302.64	1227.9	257.11
346	1.4375	570.88	1185.5	296.4	433.31	1427.3	440.54	458.76	1442.4	129.94	451.48	1743.1	289.26	494.15	1017.4	385.65	499.42	1017	141.26	275.64	1048.5	306.92	285.53	1056.9	217.54	409.12	934.2	456.33	413.22	934.49	73.32	408.42	1097.7	427.02	407.11	1120.5	107.87	261.92	1017.7	257.34	476.16	691.97	441.18	573.17	614.16	405.78	494.91	602.65	414.85	547.65	698.21	432	573.67	540.27	398.36	570.02	526.01	271.96	565.78	355.38	408.06	651.95	324.12	404.41	592.48	283.12	400.45	620.49	391.17	412.28	695.56	115.36	391.73	725.32	141.26	310.11	653.71	67.228	332.88	681.95	45.782	306.52	666.8	40.636	369.21	806.72	102.35	441.21	855.7	135.38	344.72	882.8	170.6	393.63	298.51	700.21	132.85	357.46	588.54	130	294.06	610.58	150.15	362.25	675.19	107.66	322.35	510.89	143.79	349.04	522.13	274.1	240.34	392.26	138.03	279.54	289.85	152.84	221.4	318.22	148.17	298.09	365.31	143.88	188.21	120.61	178.79	204.13	113.76	270.21	108.94	92.411	231.64	118.59	65.846	263.75	105.47	64.966	203.35	275.76	42.943	145.24	315.99	38.599	252.08	368.43	45.727	191.81	356.96	1488.9	288.68	308.26	1226.9	257.52
347	1.4417	576.65	1184.5	296.61	438.83	1426.5	440.88	464.31	1441.6	130.24	457.11	1742.4	289.52	500.18	1016.4	385.96	504.9	1016.2	141.5	281.56	1047.8	307.59	291.31	1056.2	218.25	414.99	933.11	456.55	418.37	933.94	73.498	414.49	1096.8	427.58	412.69	1119.9	108.34	267.7	1017	258	481.56	690.89	441.4	578.49	612.93	406.01	500.15	601.62	414.76	553.14	696.94	432.56	579.22	539.57	398.21	575.01	525.21	271.69	573.13	354.61	408.14	659.56	324.08	403.88	600.46	282.56	400.4	627.56	390.88	411.89	705.22	115.51	391.14	734.11	141.82	309.39	663.51	66.848	332.65	691.86	45.762	306.1	677.19	40.388	368.88	816.88	103.87	439.99	864.79	137.64	343.21	891.72	173.25	391.93	303.05	700.05	133.29	361.57	588.15	130.08	298.29	610.41	150.48	366.6	674.81	107.86	326.2	510.58	143.96	353.34	521.58	274.14	243.4	392.57	138.1	281.75	289.85	152.88	223.84	318.68	148.25	300.93	365.14	143.96	188.94	121.4	178.77	204.76	114.42	270.2	109.43	93.551	231.56	118.91	66.97	263.7	105.79	66.086	203.31	275.92	42.974	145.21	316.16	38.633	252.02	368.65	45.454	191.75	362.54	1488.1	288.98	313.9	1226	257.96
348	1.4458	582.43	1183.6	296.83	444.35	1425.6	441.24	469.84	1440.7	130.54	462.75	1741.6	289.78	506.22	1015.5	386.3	510.39	1015.5	141.76	287.5	1047.1	308.26	297.12	1055.5	218.97	420.94	932.05	456.81	423.55	933.38	73.686	420.57	1095.8	428.16	418.28	1119.2	108.83	273.51	1016.4	258.68	487.11	689.87	441.62	583.99	611.81	406.22	505.58	600.65	414.67	558.77	695.76	433.1	584.93	538.9	398.05	580.22	524.48	271.48	580.33	353.88	408.2	666.93	323.91	403.32	608.14	281.99	400.32	634.53	390.51	411.47	714.23	115.52	390.5	742.3	142.18	308.62	672.56	66.455	332.36	700.99	45.681	305.61	686.78	40.097	368.48	826.32	105.05	438.71	873.22	139.48	341.66	900.01	175.41	390.19	307.67	699.84	133.72	365.81	587.72	130.18	302.64	610.18	150.82	371.06	674.38	108.08	330.18	510.23	144.13	357.78	520.98	274.19	246.57	392.89	138.18	284.05	289.83	152.94	226.38	319.16	148.34	303.89	364.96	144.04	189.7	122.23	178.75	205.41	115.11	270.17	109.95	94.755	231.48	119.25	68.159	263.64	106.12	67.268	203.27	276.09	43.011	145.19	316.33	38.683	251.97	368.87	45.191	191.7	368.13	1487.2	289.3	319.54	1225.1	258.42
